<svg width="41" height="41" viewBox="0 0 41 41" fill="none" xmlns="http://www.w3.org/2000/svg">
<g clip-path="url(#clip0_20_225)">
<path d="M29.8382 21.883C26.4419 30.4601 15.4813 31.827 15.4813 31.827C15.4813 31.827 8.42774 23.327 11.8241 14.7499C12.77 12.361 14.6261 10.4458 16.9841 9.42553C19.3421 8.40524 22.0089 8.36346 24.3977 9.30938C26.7865 10.2553 28.7017 12.1114 29.722 14.4694C30.7423 16.8274 30.7841 19.4942 29.8382 21.883Z" fill="#B71C1C" stroke="white" stroke-width="1.5" stroke-linecap="round" stroke-linejoin="round"/>
<path d="M24.4339 19.743C24.0556 20.6985 23.3131 21.4646 22.3699 21.8727C21.4267 22.2809 20.36 22.2976 19.4045 21.9192C18.449 21.5408 17.6829 20.7984 17.2748 19.8552C16.8666 18.912 16.8499 17.8453 17.2283 16.8898C17.6067 15.9342 18.3491 15.1681 19.2923 14.76C20.2355 14.3519 21.3022 14.3352 22.2578 14.7136C23.2133 15.0919 23.9794 15.8344 24.3875 16.7776C24.7956 17.7208 24.8123 18.7875 24.4339 19.743Z" stroke="white" stroke-width="1.5" stroke-linecap="round" stroke-linejoin="round"/>
</g>
<defs>
<clipPath id="clip0_20_225">
<rect width="31" height="31" fill="white" transform="translate(11.413) rotate(21.6024)"/>
</clipPath>
</defs>
</svg>
